<?xml version="1.0" encoding="utf-8"?>
<!-- Generator: Adobe Illustrator 20.1.0, SVG Export Plug-In . SVG Version: 6.00 Build 0)  -->
<svg version="1.1" id="Layer_1" xmlns="http://www.w3.org/2000/svg" xmlns:xlink="http://www.w3.org/1999/xlink" x="0px" y="0px"
	 viewBox="0 0 457.1 83.8" style="enable-background:new 0 0 457.1 83.8;" xml:space="preserve">
<style type="text/css">
	.st0{fill:#93A7BE;}
	.st1{fill:#6885A6;}
	.st2{fill:#3D628D;}
	.st3{fill:#F0EFEF;}
</style>
<g>
	<g id="XMLID_2_">
		<g>
			<polygon class="st0" points="36.3,0.3 72.4,21 58.8,28.9 36.4,16 14,28.8 0.3,21.1 			"/>
			<polygon class="st1" points="36.3,67.8 36.3,83.5 0.2,62.7 0.3,21.1 14,28.8 14,55 			"/>
			<polygon class="st2" points="72.4,62.7 36.3,83.5 36.3,67.8 58.8,54.8 			"/>
		</g>
		<g>
		</g>
	</g>
	<g>
		<path class="st3" d="M105.2,40.8c-0.6-1-1.5-1.8-2.7-2.4c-1.2-0.6-2.5-1-3.9-1c-1.5,0-2.9,0.3-4.1,0.8c-1.2,0.5-2.2,1.3-3.1,2.2
			c-0.9,0.9-1.5,2-2,3.3c-0.5,1.3-0.7,2.6-0.7,4.1c0,1.5,0.2,2.8,0.7,4.1c0.5,1.2,1.1,2.3,2,3.3c0.8,0.9,1.9,1.7,3.1,2.2
			c1.2,0.5,2.6,0.8,4.1,0.8c1.7,0,3-0.3,4.2-0.9c1.1-0.6,2.1-1.4,2.8-2.4l2.8,2.1c-1.1,1.4-2.4,2.4-4,3.2c-1.6,0.8-3.5,1.2-5.7,1.2
			c-2.1,0-4-0.3-5.7-1c-1.7-0.7-3.1-1.6-4.3-2.8c-1.2-1.2-2.1-2.6-2.8-4.3c-0.7-1.7-1-3.4-1-5.4c0-1.9,0.3-3.7,1-5.4
			c0.7-1.7,1.6-3.1,2.8-4.3c1.2-1.2,2.6-2.2,4.3-2.8c1.7-0.7,3.6-1,5.7-1c1.7,0,3.5,0.4,5.3,1.1c1.8,0.8,3.2,1.9,4.3,3.3L105.2,40.8
			z"/>
		<path class="st3" d="M140.8,47.8c0,1.9-0.3,3.7-1,5.4c-0.7,1.7-1.6,3.1-2.8,4.3c-1.2,1.2-2.7,2.2-4.3,2.8c-1.7,0.7-3.5,1-5.6,1
			c-2,0-3.8-0.3-5.5-1c-1.7-0.7-3.1-1.6-4.3-2.8c-1.2-1.2-2.2-2.6-2.8-4.3s-1-3.4-1-5.4c0-1.9,0.3-3.7,1-5.4
			c0.7-1.7,1.6-3.1,2.8-4.3s2.7-2.2,4.3-2.8c1.7-0.7,3.5-1,5.5-1c2,0,3.9,0.3,5.6,1c1.7,0.7,3.1,1.6,4.3,2.8
			c1.2,1.2,2.2,2.6,2.8,4.3C140.5,44.1,140.8,45.9,140.8,47.8z M136.9,47.8c0-1.4-0.2-2.8-0.7-4c-0.5-1.3-1.1-2.4-2-3.3
			c-0.8-0.9-1.9-1.7-3.1-2.2c-1.2-0.6-2.6-0.8-4.1-0.8c-1.5,0-2.9,0.3-4,0.8c-1.2,0.6-2.2,1.3-3.1,2.2c-0.8,0.9-1.5,2-2,3.3
			c-0.5,1.3-0.7,2.6-0.7,4c0,1.4,0.2,2.8,0.7,4c0.5,1.3,1.1,2.4,2,3.3c0.8,0.9,1.9,1.7,3.1,2.2c1.2,0.5,2.5,0.8,4,0.8
			c1.5,0,2.9-0.3,4.1-0.8c1.2-0.5,2.2-1.3,3.1-2.2c0.8-0.9,1.5-2,2-3.3C136.6,50.6,136.9,49.3,136.9,47.8z"/>
		<path class="st3" d="M149.9,37.9c0-1.1-0.1-2.1-0.2-3h3.6c0.1,0.7,0.1,1.5,0.2,2.3c0,0.8,0.1,1.5,0.1,2.1h0.1
			c0.7-1.5,1.8-2.7,3.3-3.7c1.5-0.9,3.1-1.4,5-1.4c0.5,0,0.9,0,1.3,0.1c0.4,0,0.8,0.1,1.2,0.2l-0.5,3.6c-0.2-0.1-0.6-0.1-1.1-0.2
			c-0.5-0.1-1-0.1-1.5-0.1c-1,0-1.9,0.2-2.9,0.5c-0.9,0.4-1.7,0.9-2.4,1.7c-0.7,0.8-1.2,1.8-1.7,3c-0.4,1.2-0.6,2.7-0.6,4.4v13.2
			h-3.7V40.6C149.9,39.9,149.9,39,149.9,37.9z"/>
		<path class="st3" d="M174.1,35c0.1,0.7,0.1,1.5,0.2,2.3c0,0.8,0.1,1.5,0.1,2.1h0.1c0.7-1.5,1.9-2.7,3.6-3.7
			c1.7-0.9,3.4-1.4,5.2-1.4c3.3,0,5.7,1,7.3,2.9c1.6,1.9,2.4,4.5,2.4,7.7v15.8h-3.7V46.5c0-1.4-0.1-2.6-0.3-3.7
			c-0.2-1.1-0.6-2-1.1-2.8c-0.5-0.8-1.2-1.4-2.1-1.8c-0.9-0.4-2-0.7-3.4-0.7c-1,0-2,0.2-2.9,0.6c-0.9,0.4-1.8,1-2.5,1.8
			c-0.7,0.8-1.3,1.9-1.8,3.1s-0.7,2.8-0.7,4.5v13.2h-3.7V40.6c0-0.7,0-1.6-0.1-2.7c0-1.1-0.1-2.1-0.2-3H174.1z"/>
		<path class="st3" d="M227.2,47.1c0,0.3,0,0.5,0,0.8c0,0.3,0,0.6-0.1,0.9h-21.4c0,1.3,0.3,2.5,0.8,3.6c0.5,1.1,1.1,2.1,2,3
			c0.8,0.8,1.8,1.5,3,2c1.1,0.5,2.4,0.7,3.7,0.7c1.9,0,3.6-0.4,5-1.3c1.4-0.9,2.5-1.9,3.2-3.1l2.8,2.2c-1.5,1.9-3.2,3.3-5.1,4.2
			c-1.9,0.8-3.8,1.3-6,1.3c-1.9,0-3.7-0.3-5.3-1c-1.6-0.7-3-1.6-4.2-2.8c-1.2-1.2-2.1-2.6-2.8-4.3c-0.7-1.7-1-3.4-1-5.4
			c0-1.9,0.3-3.7,1-5.4c0.7-1.7,1.6-3.1,2.8-4.3s2.5-2.2,4.1-2.8c1.6-0.7,3.3-1,5.1-1c2,0,3.8,0.3,5.3,1c1.5,0.7,2.8,1.6,3.9,2.8
			c1,1.2,1.8,2.5,2.3,4C227,43.7,227.2,45.3,227.2,47.1z M223.4,45.9c-0.1-2.4-0.9-4.4-2.3-6c-1.4-1.6-3.5-2.4-6.2-2.4
			c-1.2,0-2.4,0.2-3.5,0.7c-1.1,0.5-2,1.1-2.8,1.9c-0.8,0.8-1.4,1.7-1.9,2.7c-0.5,1-0.8,2.1-0.8,3.2H223.4z"/>
		<path class="st3" d="M236.2,37.9c0-1.1-0.1-2.1-0.2-3h3.6c0.1,0.7,0.1,1.5,0.2,2.3c0,0.8,0.1,1.5,0.1,2.1h0.1
			c0.7-1.5,1.8-2.7,3.3-3.7c1.5-0.9,3.1-1.4,5-1.4c0.5,0,0.9,0,1.3,0.1c0.4,0,0.8,0.1,1.2,0.2l-0.5,3.6c-0.2-0.1-0.6-0.1-1.1-0.2
			c-0.5-0.1-1-0.1-1.5-0.1c-1,0-1.9,0.2-2.9,0.5c-0.9,0.4-1.7,0.9-2.4,1.7c-0.7,0.8-1.2,1.8-1.7,3c-0.4,1.2-0.6,2.7-0.6,4.4v13.2
			h-3.7V40.6C236.3,39.9,236.3,39,236.2,37.9z"/>
		<path class="st3" d="M270.9,41.1c-0.6-1.1-1.4-1.9-2.5-2.6c-1.1-0.7-2.4-1-3.8-1c-0.7,0-1.3,0.1-2,0.2c-0.7,0.1-1.2,0.4-1.8,0.7
			c-0.5,0.3-0.9,0.8-1.2,1.3c-0.3,0.5-0.5,1.1-0.5,1.8c0,1.2,0.5,2.1,1.5,2.8c1,0.6,2.5,1.2,4.7,1.6c3,0.6,5.3,1.5,6.7,2.7
			c1.4,1.2,2.2,2.8,2.2,4.8c0,1.5-0.3,2.7-0.9,3.7c-0.6,1-1.3,1.8-2.2,2.5c-0.9,0.6-2,1.1-3.1,1.4c-1.2,0.3-2.3,0.4-3.5,0.4
			c-1.9,0-3.8-0.4-5.7-1.2c-1.8-0.8-3.3-2.1-4.5-3.8l3-2.2c0.7,1.1,1.6,2.1,2.9,2.9c1.3,0.8,2.7,1.2,4.2,1.2c0.8,0,1.6-0.1,2.3-0.2
			c0.7-0.1,1.4-0.4,1.9-0.8c0.6-0.4,1-0.8,1.3-1.4c0.3-0.6,0.5-1.3,0.5-2.1c0-1.4-0.7-2.4-2-3.1c-1.3-0.7-3.2-1.3-5.6-1.9
			c-0.8-0.2-1.6-0.4-2.4-0.7c-0.9-0.3-1.7-0.7-2.4-1.2c-0.7-0.5-1.3-1.2-1.8-2c-0.5-0.8-0.7-1.8-0.7-3c0-1.3,0.3-2.4,0.8-3.4
			c0.5-0.9,1.2-1.7,2.1-2.3c0.9-0.6,1.8-1.1,2.9-1.3c1.1-0.3,2.2-0.4,3.4-0.4c1.8,0,3.5,0.4,5.2,1.2c1.7,0.8,3,1.9,3.8,3.4
			L270.9,41.1z"/>
		<path class="st3" d="M294.2,38.1H287v15c0,1,0.1,1.7,0.3,2.4c0.2,0.6,0.4,1.1,0.8,1.5c0.3,0.3,0.8,0.6,1.2,0.7
			c0.5,0.1,1,0.2,1.5,0.2c0.5,0,1.1-0.1,1.6-0.2c0.6-0.1,1.1-0.3,1.6-0.6l0.2,3.2c-0.7,0.3-1.3,0.4-2.1,0.6
			c-0.7,0.1-1.5,0.2-2.3,0.2c-0.7,0-1.4-0.1-2.2-0.3s-1.5-0.5-2.1-1c-0.7-0.5-1.2-1.2-1.6-2.1c-0.4-0.9-0.6-2-0.6-3.5V38.1h-5.3V35
			h5.3v-7.3h3.7V35h7.3V38.1z"/>
		<path class="st3" d="M326.7,47.8c0,1.9-0.3,3.7-1,5.4c-0.7,1.7-1.6,3.1-2.8,4.3c-1.2,1.2-2.7,2.2-4.3,2.8c-1.7,0.7-3.5,1-5.6,1
			c-2,0-3.8-0.3-5.5-1c-1.7-0.7-3.1-1.6-4.3-2.8c-1.2-1.2-2.2-2.6-2.8-4.3c-0.7-1.7-1-3.4-1-5.4c0-1.9,0.3-3.7,1-5.4
			c0.7-1.7,1.6-3.1,2.8-4.3s2.7-2.2,4.3-2.8c1.7-0.7,3.5-1,5.5-1c2,0,3.9,0.3,5.6,1c1.7,0.7,3.1,1.6,4.3,2.8s2.2,2.6,2.8,4.3
			C326.4,44.1,326.7,45.9,326.7,47.8z M322.7,47.8c0-1.4-0.2-2.8-0.7-4c-0.5-1.3-1.1-2.4-2-3.3c-0.8-0.9-1.9-1.7-3.1-2.2
			c-1.2-0.6-2.6-0.8-4.1-0.8s-2.9,0.3-4,0.8c-1.2,0.6-2.2,1.3-3.1,2.2c-0.8,0.9-1.5,2-2,3.3c-0.5,1.3-0.7,2.6-0.7,4
			c0,1.4,0.2,2.8,0.7,4c0.5,1.3,1.1,2.4,2,3.3c0.8,0.9,1.9,1.7,3.1,2.2s2.5,0.8,4,0.8s2.9-0.3,4.1-0.8c1.2-0.5,2.2-1.3,3.1-2.2
			c0.8-0.9,1.5-2,2-3.3C322.5,50.6,322.7,49.3,322.7,47.8z"/>
		<path class="st3" d="M339.1,35c0.1,0.7,0.1,1.5,0.2,2.3c0,0.8,0.1,1.5,0.1,2.1h0.1c0.7-1.5,1.9-2.7,3.6-3.7
			c1.7-0.9,3.4-1.4,5.2-1.4c3.3,0,5.7,1,7.3,2.9c1.6,1.9,2.4,4.5,2.4,7.7v15.8h-3.7V46.5c0-1.4-0.1-2.6-0.3-3.7
			c-0.2-1.1-0.6-2-1.1-2.8c-0.5-0.8-1.2-1.4-2.1-1.8c-0.9-0.4-2-0.7-3.4-0.7c-1,0-2,0.2-2.9,0.6c-0.9,0.4-1.8,1-2.5,1.8
			c-0.7,0.8-1.3,1.9-1.8,3.1c-0.4,1.3-0.7,2.8-0.7,4.5v13.2h-3.7V40.6c0-0.7,0-1.6-0.1-2.7c0-1.1-0.1-2.1-0.2-3H339.1z"/>
		<path class="st3" d="M392.2,47.1c0,0.3,0,0.5,0,0.8c0,0.3,0,0.6-0.1,0.9h-21.4c0,1.3,0.3,2.5,0.8,3.6c0.5,1.1,1.1,2.1,2,3
			c0.8,0.8,1.8,1.5,3,2c1.1,0.5,2.4,0.7,3.7,0.7c1.9,0,3.6-0.4,5-1.3c1.4-0.9,2.5-1.9,3.2-3.1l2.8,2.2c-1.5,1.9-3.2,3.3-5.1,4.2
			c-1.9,0.8-3.8,1.3-6,1.3c-1.9,0-3.7-0.3-5.3-1c-1.6-0.7-3-1.6-4.2-2.8c-1.2-1.2-2.1-2.6-2.8-4.3s-1-3.4-1-5.4c0-1.9,0.3-3.7,1-5.4
			c0.7-1.7,1.6-3.1,2.8-4.3c1.2-1.2,2.5-2.2,4.1-2.8c1.6-0.7,3.3-1,5.1-1c2,0,3.8,0.3,5.3,1c1.5,0.7,2.8,1.6,3.9,2.8
			c1,1.2,1.8,2.5,2.3,4C392,43.7,392.2,45.3,392.2,47.1z M388.5,45.9c-0.1-2.4-0.9-4.4-2.3-6c-1.4-1.6-3.5-2.4-6.2-2.4
			c-1.2,0-2.4,0.2-3.5,0.7c-1.1,0.5-2,1.1-2.8,1.9c-0.8,0.8-1.4,1.7-1.9,2.7c-0.5,1-0.8,2.1-0.8,3.2H388.5z"/>
		<path class="st3" d="M406.5,58.1c0,0.8-0.3,1.5-0.8,2.1s-1.3,0.9-2.1,0.9c-0.9,0-1.6-0.3-2.1-0.9s-0.8-1.3-0.8-2.1
			c0-0.8,0.3-1.5,0.8-2.1s1.3-0.9,2.1-0.9c0.9,0,1.6,0.3,2.1,0.9S406.5,57.3,406.5,58.1z"/>
		<path class="st3" d="M421.2,25.1c0,0.8-0.3,1.4-0.8,1.9s-1.2,0.7-1.8,0.7c-0.7,0-1.3-0.2-1.8-0.7s-0.8-1.1-0.8-1.9
			c0-0.8,0.3-1.4,0.8-1.9c0.6-0.5,1.2-0.7,1.8-0.7c0.7,0,1.3,0.2,1.8,0.7C421,23.6,421.2,24.3,421.2,25.1z M420.5,60.7h-3.7V35h3.7
			V60.7z"/>
		<path class="st3" d="M457.1,47.8c0,1.9-0.3,3.7-1,5.4c-0.7,1.7-1.6,3.1-2.8,4.3c-1.2,1.2-2.7,2.2-4.3,2.8c-1.7,0.7-3.5,1-5.6,1
			c-2,0-3.8-0.3-5.5-1c-1.7-0.7-3.1-1.6-4.3-2.8c-1.2-1.2-2.2-2.6-2.8-4.3c-0.7-1.7-1-3.4-1-5.4c0-1.9,0.3-3.7,1-5.4
			c0.7-1.7,1.6-3.1,2.8-4.3s2.7-2.2,4.3-2.8c1.7-0.7,3.5-1,5.5-1c2,0,3.9,0.3,5.6,1c1.7,0.7,3.1,1.6,4.3,2.8s2.2,2.6,2.8,4.3
			C456.7,44.1,457.1,45.9,457.1,47.8z M453.1,47.8c0-1.4-0.2-2.8-0.7-4c-0.5-1.3-1.1-2.4-2-3.3c-0.8-0.9-1.9-1.7-3.1-2.2
			c-1.2-0.6-2.6-0.8-4.1-0.8s-2.9,0.3-4,0.8c-1.2,0.6-2.2,1.3-3.1,2.2c-0.8,0.9-1.5,2-2,3.3c-0.5,1.3-0.7,2.6-0.7,4
			c0,1.4,0.2,2.8,0.7,4c0.5,1.3,1.1,2.4,2,3.3c0.8,0.9,1.9,1.7,3.1,2.2s2.5,0.8,4,0.8s2.9-0.3,4.1-0.8c1.2-0.5,2.2-1.3,3.1-2.2
			c0.8-0.9,1.5-2,2-3.3C452.9,50.6,453.1,49.3,453.1,47.8z"/>
	</g>
</g>
</svg>
